<svg xmlns="http://www.w3.org/2000/svg" viewBox="0 0 240 240">
  <defs>
    <clipPath id="c1"><rect width="240" height="240" rx="44"/></clipPath>
  </defs>
  <rect width="240" height="240" rx="44" fill="#07060f"/>
  <g clip-path="url(#c1)">
    <circle cx="120" cy="120" r="108" fill="#0d0b18"/>
    <circle cx="120" cy="120" r="100" fill="none" stroke="#1c1836" stroke-width="4"/>
    <circle cx="120" cy="120" r="78"  fill="none" stroke="#1c1836" stroke-width="4"/>
    <circle cx="120" cy="120" r="56"  fill="none" stroke="#1c1836" stroke-width="4"/>
    <circle cx="120" cy="120" r="38" fill="#08060e"/>
    <circle cx="120" cy="120" r="38" fill="none" stroke="#534AB7" stroke-width="2"/>

    <!-- Z with both terminals running on into clef curls with ball terminals.
         Identical geometry to mobile/{app,wear}/src/main/res/drawable/ic_launcher_foreground.xml
         — both authored in this 240-unit space. Keep them in sync. -->
    <path d="M93.4,87.7 L152.3,87.7 L87.7,152.3 L148.5,152.3"
          fill="none" stroke="#AFA9EC" stroke-width="16.7"
          stroke-linecap="square" stroke-linejoin="miter"/>

    <path d="M148.5,152.3 C176.05,152.3 187.45,136.15 180.8,123.8 C175.1,113.35 160.85,115.25 159.9,126.65"
          fill="none" stroke="#AFA9EC" stroke-width="16.7" stroke-linecap="round"/>
    <circle cx="159.9" cy="128.55" r="11.9" fill="#AFA9EC"/>

    <path d="M93.4,87.7 C65.85,87.7 54.45,103.85 61.1,116.2 C66.8,126.65 81.05,124.75 82,113.35"
          fill="none" stroke="#AFA9EC" stroke-width="16.7" stroke-linecap="round"/>
    <circle cx="82" cy="110.45" r="11.9" fill="#AFA9EC"/>
  </g>
</svg>
